<svg id="Layer_1" enable-background="new 0 0 511.998 511.998" height="512" viewBox="0 0 511.998 511.998" width="512" xmlns="http://www.w3.org/2000/svg"><g><g clip-rule="evenodd" fill-rule="evenodd"><path d="m218.431 42.494-55.382 103.961 22.905 31.526c19.487-13.674 43.226-21.701 68.84-21.703v-136.289c-14.773.417-28.911 8.533-36.363 22.505z" fill="#fff2a0"/><path d="m254.794 156.279c-25.614.002-49.353 8.028-68.84 21.703-21.311 14.954-37.538 36.663-45.57 62.017-3.626 11.446-5.582 23.635-5.582 36.28 0 12.699 1.973 24.938 5.628 36.427 8.038 25.26 24.213 46.893 45.445 61.816 19.502 13.708 43.27 21.756 68.918 21.757h.009c27.109 0 52.118-8.989 72.21-24.149 19.211-14.496 33.926-34.633 41.682-57.949 3.963-11.914 6.109-24.657 6.109-37.902 0-13.191-2.128-25.885-6.06-37.757-7.753-23.408-22.518-43.622-41.806-58.152-20.079-15.125-45.059-24.091-72.133-24.091-.004 0-.008 0-.01 0zm-79.992 120c0-44.183 35.817-80 80-80s80 35.817 80 80-35.818 80-80 80-80-35.817-80-80z" fill="#ffc144"/><circle cx="254.803" cy="276.279" fill="#c7d9da" r="80"/><path d="m169.804 360.987c-13.322-13.368-23.511-29.86-29.373-48.281l-36.727 11.933-15.233 116.134c-1.834 8.902-.853 18.455 3.433 27.257 3.332 6.842 8.252 12.394 14.102 16.424l79.868-109.928c-5.75-4.042-11.126-8.576-16.07-13.539z" fill="#ffea60"/><path d="m185.873 374.526-79.869 109.931c12.257 8.452 28.594 10.235 42.934 3.252l105.855-51.525v-39.904c-25.686-.002-49.44-8.057-68.92-21.754z" fill="#fff2a0"/><path d="m254.794 396.279v39.904l108.509 51.693c7.261 3.466 15.615 4.854 24.182 3.669 7.614-1.053 14.477-4.058 20.155-8.44l-80.624-110.97c-20.06 15.145-45.049 24.144-72.213 24.144-.003 0-.007 0-.009 0z" fill="#ffea60"/><path d="m327.015 372.135 80.625 110.97c11.701-9.028 18.37-23.902 16.2-39.59l-16.309-116.715-38.837-12.619c-5.809 17.464-15.523 33.145-28.106 46.008-4.214 4.311-8.751 8.306-13.573 11.946z" fill="#fff2a0"/><path d="m368.694 314.181 38.837 12.619 80.928-85.361c6.551-6.113 11.239-14.327 12.898-23.833 1.31-7.502.573-14.888-1.809-21.585l-130.805 42.501c3.932 11.872 6.06 24.566 6.06 37.757 0 13.245-2.146 25.988-6.109 37.902z" fill="#ffea60"/><path d="m368.742 238.523 130.808-42.502c-4.983-14.025-17.174-25.035-32.882-27.777l-115.993-20.548-23.737 32.67c5.051 3.806 9.79 8.002 14.173 12.542 12.365 12.796 21.908 28.335 27.631 45.615z" fill="#fff2a0"/><path d="m140.384 239.999c5.85-18.467 16.047-35 29.39-48.397 4.976-4.997 10.39-9.558 16.18-13.62l-22.905-31.526-116.841 21.712c-8.42 1.266-16.544 5.063-23.148 11.415-5.522 5.312-9.301 11.756-11.32 18.616z" fill="#ffea60"/><path d="m134.802 276.279c0-12.646 1.956-24.834 5.582-36.28l-128.645-41.799c-4.179 14.19-.836 30.163 10.153 41.587l81.812 84.853 36.727-11.933c-3.656-11.49-5.629-23.728-5.629-36.428z" fill="#fff2a0"/><path d="m254.803 156.279c1.982 0 3.952.048 5.91.143 24.841 1.203 47.645 9.939 66.226 23.944l23.737-32.67-57.37-105.532c-3.842-7.059-9.717-13.115-17.339-17.18-6.751-3.601-14.036-5.196-21.173-4.995v136.29z" fill="#ffea60"/></g><g><path d="m468.413 158.396-111.251-19.707-55.073-101.305c-4.916-9.034-12.321-16.373-21.416-21.223-25.555-13.631-57.435-3.93-71.068 21.631l-53.117 99.711-19.947 3.707c-5.43 1.01-9.014 6.229-8.005 11.659s6.232 9.01 11.659 8.005l18.475-3.433 13.486 18.563c-16.545 13.66-29.656 31.332-37.851 51.505l-108.808-35.354c1.29-1.921 2.788-3.722 4.495-5.365 4.895-4.708 11.016-7.729 17.702-8.733.114-.017.229-.036.343-.058l3.663-.682c5.43-1.01 9.013-6.23 8.002-11.66-1.011-5.431-6.234-9.014-11.66-8.002l-3.5.651c-10.739 1.651-20.561 6.514-28.415 14.069-10.121 9.735-15.845 22.83-16.117 36.872s4.939 27.35 14.683 37.478l78.47 81.388-14.562 111.017c-2.255 11.351-.767 22.849 4.312 33.278 9.108 18.705 27.904 29.603 47.432 29.603 7.728 0 15.569-1.706 22.972-5.311l101.524-49.418 104.154 49.618c9.224 4.403 19.549 5.977 29.86 4.55 28.727-3.973 48.864-30.576 44.89-59.318l-15.644-111.945 77.415-81.656c8.301-7.838 13.724-17.93 15.692-29.204 4.994-28.607-14.215-55.942-42.795-60.931zm16.672 31.81-110.374 35.863c-7.694-18.306-19.464-34.49-34.166-47.417l14.544-20.018 109.86 19.46c8.302 1.449 15.327 5.933 20.136 12.112zm-86.592 144.173 15.441 110.507c1.142 8.252-.932 16.219-5.253 22.64l-68.065-93.683c14.63-12.884 26.353-28.993 34.036-47.21zm-113.973-287.439 54.354 99.986-14.313 19.7c-17.526-11.189-37.898-18.297-59.768-19.967v-115.451c2.201.622 4.369 1.48 6.468 2.599 5.634 3.005 10.22 7.548 13.259 13.133zm-109.704 98.697 52.438-98.437c3.918-7.345 10.273-12.572 17.539-15.224v114.684c-20.436 1.563-39.56 7.88-56.279 17.832zm79.986 20.642c60.654 0 110 49.346 110 110s-49.346 110-110 110-110-49.346-110-110 49.346-110 110-110zm-150.271 303.192c-1.387-1.774-2.613-3.715-3.637-5.819-3.184-6.539-4.093-13.753-2.629-20.861.05-.237.09-.477.121-.717l14.411-109.875 21.565-7.008c8.187 20.085 21.25 37.682 37.721 51.302zm-75.432-236.618c-5.622-5.844-8.806-13.404-9.077-21.448l108.21 35.16c-2.241 9.547-3.43 19.494-3.43 29.714 0 10.274 1.203 20.271 3.467 29.863l-21.708 7.054zm115.462 245.864c-7.593 3.698-15.931 4.176-23.459 1.972l67.331-92.672c16.739 9.98 35.892 16.314 56.361 17.88v24.032zm241.554 2.921c-6.42.891-12.823-.074-18.512-2.791l-102.81-48.977v-23.971c21.904-1.672 42.305-8.799 59.849-20.018l68.319 94.034c-2.172.804-4.459 1.393-6.846 1.723zm105.39-265.752c-1.231 7.059-4.645 13.366-9.868 18.241-.149.14-.294.283-.435.432l-76.585 80.78-23.652-7.685c2.501-10.052 3.837-20.56 3.837-31.375 0-10.761-1.323-21.218-3.8-31.225l110.963-36.054c.088 2.263-.055 4.567-.46 6.886z"/><path d="m254.802 366.279c49.627 0 90.001-40.374 90.001-90s-40.374-90-90.001-90c-49.626 0-90 40.374-90 90s40.374 90 90 90zm0-160c38.599 0 70.001 31.402 70.001 70s-31.402 70-70.001 70c-38.598 0-70-31.402-70-70s31.402-70 70-70z"/><path d="m243.715 306.278c-5.522 0-10 4.478-10 10s4.478 10 10 10h22.174c5.522 0 10-4.478 10-10s-4.478-10-10-10h-1.087v-69.999c0-3.572-1.906-6.874-5-8.66-3.094-1.787-6.906-1.787-10 0l-11.087 6.401c-4.783 2.762-6.422 8.878-3.66 13.66 2.044 3.54 5.921 5.358 9.747 4.943v53.654h-1.087z"/><path d="m94.123 169.264c5.522 0 10-4.478 10-10s-4.478-10-10-10h-.008c-5.522 0-9.996 4.478-9.996 10s4.482 10 10.004 10z"/></g></g></svg>